<svg xmlns="http://www.w3.org/2000/svg" viewBox="0 0 960 720" role="img" aria-labelledby="title desc">
  <title id="title">Empty servant kitchen</title>
  <desc id="desc">A warm kitchen with copper pans, tiled floor, and steam.</desc>
  <defs>
    <linearGradient id="kWall" x1="0" x2="1" y1="0" y2="1">
      <stop offset="0" stop-color="#b9854e"/>
      <stop offset="0.55" stop-color="#e0c19a"/>
      <stop offset="1" stop-color="#66412d"/>
    </linearGradient>
    <linearGradient id="tile" x1="0" x2="0" y1="0" y2="1">
      <stop offset="0" stop-color="#6b4a36"/>
      <stop offset="1" stop-color="#2d211a"/>
    </linearGradient>
    <filter id="steamBlur">
      <feGaussianBlur stdDeviation="16"/>
    </filter>
    <filter id="grain">
      <feTurbulence type="fractalNoise" baseFrequency="0.7" numOctaves="3" seed="12"/>
      <feColorMatrix type="saturate" values="0"/>
      <feComponentTransfer>
        <feFuncA type="table" tableValues="0 0.12"/>
      </feComponentTransfer>
      <feBlend mode="multiply" in2="SourceGraphic"/>
    </filter>
  </defs>
  <rect width="960" height="720" fill="#2b1f17"/>
  <rect width="960" height="472" fill="url(#kWall)"/>
  <rect y="472" width="960" height="248" fill="url(#tile)"/>
  <path d="M0 512h960M0 566h960M0 620h960M118 472v248M238 472v248M360 472v248M480 472v248M600 472v248M720 472v248M840 472v248" stroke="#d7b98f" stroke-width="3" opacity="0.22"/>
  <path d="M86 78h790v54H86z" fill="#2d211a"/>
  <path d="M128 126v186M234 126v186M340 126v186M446 126v186M552 126v186M658 126v186M764 126v186" stroke="#211812" stroke-width="7"/>
  <g fill="#c98534" stroke="#6c3e21" stroke-width="6">
    <circle cx="168" cy="220" r="48"/>
    <circle cx="298" cy="230" r="56"/>
    <circle cx="430" cy="216" r="42"/>
    <circle cx="586" cy="232" r="58"/>
    <circle cx="732" cy="214" r="44"/>
  </g>
  <path d="M62 392h836v92H62z" fill="#3d2a1e"/>
  <path d="M96 354h768v52H96z" fill="#5a3a24"/>
  <path d="M150 350h110v34H150zM336 350h112v34H336zM530 350h110v34H530zM704 350h108v34H704z" fill="#e4cfad"/>
  <path d="M166 330c-20-74 18-110 38-166M386 334c-28-82 26-118 46-190M600 334c-26-84 30-120 54-178" stroke="#fff1d5" stroke-width="30" opacity="0.36" filter="url(#steamBlur)" fill="none"/>
  <path d="M0 486c142-40 314-42 516-8 168 28 316 32 444 12v230H0z" fill="#1a1411" opacity="0.28"/>
  <rect width="960" height="720" fill="transparent" filter="url(#grain)"/>
</svg>
